[code]IMDB LINK :-[url]http://www.imdb.com/title/tt0127759/[/url][/code]








Movie Name:-  L.E.T.H.A.L. Ladies Return to Savage Beach (1998) 

Run Time :- 98 min  


Genre:-  Action | Thriller  


Release Date :-  14 February 2006 (USA)



Story Line:-A stolen computer disk contains the location of a hidden tresaure trove. It's up to the sexy ladies of LETHAL (Legion to Ensure Total Harmony and Law) to find the treasure before the bad guys do. Will the forces of evil be able to overcome LETHAL's powerful combination of bullets, brains, and boobs?



Soundtracks

1."Return To Savage Beach"--
Music & Lyrics by Ron Di Iulio
Performed by Gilda Medina
2."Your Prisoner of Love"--
Music & Lyrics by Ron Di Iulio
Performed by Crawfish
3."Which Ending Does This Story Have?"--
Music & Lyrics by Ron Di Iulio
Performed by Gilda Medina







General
Complete name                            : L.E.T.H.A.L. Ladies:-Return to Savage Beach (1998) .avi
Format                                   : AVI
Format/Info                              : Audio Video Interleave
File size                                : 142 MiB
Duration                                 : 1h 35mn
Overall bit rate                         : 209 Kbps
Writing application                      : Lavf51.12.1

Video
ID                                       : 0
Format                                   : xvid
Codec ID                                 : xvid
Duration                                 : 1h 35mn
Bit rate                                 : 164 Kbps
Width                                    : 320 pixels
Height                                   : 240 pixels
Display aspect ratio                     : 4:3
Frame rate                               : 25.000 fps
Bits/(Pixel*Frame)                       : 0.085
Stream size                              : 112 MiB (79%)

Audio
ID                                       : 1
Format                                   : MPEG Audio
Format version                           : Version 2
Format profile                           : Layer 3
Codec ID                                 : 55
Codec ID/Hint                            : MP3
Duration                                 : 1h 35mn
Bit rate mode                            : Constant
Bit rate                                 : 32.0 Kbps
Channel(s)                               : 1 channel
Sampling rate                            : 22.05 KHz
Compression mode                         : Lossy
Stream size                              : 21.9 MiB (15%)






[img]http://www.shotpix.com/images/39741266100115848635.gif[/img]





[img]http://www.shotpix.com/images/07692998606010536338.png[/img]




[img]http://www.shotpix.com/images/61858435039888797905.png[/img]






[img]http://www.shotpix.com/images/67054674593446561317.png[/img]






[img]http://www.shotpix.com/images/62522436961729859685.png[/img]






[img]http://www.shotpix.com/images/48543068330712746513.png[/img]






[img]http://www.shotpix.com/images/45981559677521613459.png[/img]





[img]http://www.shotpix.com/images/96144169397457936072.png[/img]







[img]http://www.shotpix.com/images/06579233777291415826.gif[/img]








[img]http://www.shotpix.com/images/37530658244654420663.jpg[/img]